HIERARCHY
ROOT hip
{
  OFFSET -0.187293 96.2814 0.227346
  CHANNELS 6 Xposition Yposition Zposition Zrotation Xrotation Yrotation
  JOINT abdomen
  {
    OFFSET 0 7.2397 0
    CHANNELS 6 Xposition Yposition Zposition Zrotation Xrotation Yrotation
    JOINT chest
    {
      OFFSET 0 16.546 0
      CHANNELS 6 Xposition Yposition Zposition Zrotation Xrotation Yrotation
      JOINT neck
      {
        OFFSET 0 34.2149 0
        CHANNELS 6 Xposition Yposition Zposition Zrotation Xrotation Yrotation
        JOINT head
        {
          OFFSET 0 6.2923 0
          CHANNELS 6 Xposition Yposition Zposition Zrotation Xrotation Yrotation
          End Site
          {
            OFFSET 0 21.2161 0
          }
        }
      }
      JOINT lCollar
      {
        OFFSET 4.0639 26.6115 -1.1234
        CHANNELS 6 Xposition Yposition Zposition Zrotation Xrotation Yrotation
        JOINT lShldr
        {
          OFFSET 14.1772 0 0
          CHANNELS 6 Xposition Yposition Zposition Zrotation Xrotation Yrotation
          JOINT lForeArm
          {
            OFFSET 26.1234 0 0
            CHANNELS 6 Xposition Yposition Zposition Zrotation Xrotation Yrotation
            JOINT lHand
            {
              OFFSET 27.7188 0 0
              CHANNELS 6 Xposition Yposition Zposition Zrotation Xrotation Yrotation
              JOINT lThumb1
              {
                OFFSET 2.2979 -0.4685 1.8313
                CHANNELS 6 Xposition Yposition Zposition Zrotation Xrotation Yrotation
                JOINT lThumb2
                {
                  OFFSET 5.2953 0 0
                  CHANNELS 6 Xposition Yposition Zposition Zrotation Xrotation Yrotation
                  JOINT lThumb3
                  {
                    OFFSET 3.0181 0 0
                    CHANNELS 6 Xposition Yposition Zposition Zrotation Xrotation Yrotation
                    End Site
                    {
                      OFFSET 2.6294 0 0
                    }
                  }
                }
              }
              JOINT lIndex1
              {
                OFFSET 9.3793 0.2991 2.5924
                CHANNELS 6 Xposition Yposition Zposition Zrotation Xrotation Yrotation
                JOINT lIndex2
                {
                  OFFSET 4.3461 0 0
                  CHANNELS 6 Xposition Yposition Zposition Zrotation Xrotation Yrotation
                  JOINT lIndex3
                  {
                    OFFSET 2.1666 0 0
                    CHANNELS 6 Xposition Yposition Zposition Zrotation Xrotation Yrotation
                    End Site
                    {
                      OFFSET 2.2048 0 0
                    }
                  }
                }
              }
              JOINT lMid1
              {
                OFFSET 9.4769 0.8376 0.2947
                CHANNELS 6 Xposition Yposition Zposition Zrotation Xrotation Yrotation
                JOINT lMid2
                {
                  OFFSET 4.772 0 0
                  CHANNELS 6 Xposition Yposition Zposition Zrotation Xrotation Yrotation
                  JOINT lMid3
                  {
                    OFFSET 2.8722 0 0
                    CHANNELS 6 Xposition Yposition Zposition Zrotation Xrotation Yrotation
                    End Site
                    {
                      OFFSET 2.0959 0 0
                    }
                  }
                }
              }
              JOINT lRing1
              {
                OFFSET 8.6586 1.0176 -1.7016
                CHANNELS 6 Xposition Yposition Zposition Zrotation Xrotation Yrotation
                JOINT lRing2
                {
                  OFFSET 4.5461 0 0
                  CHANNELS 6 Xposition Yposition Zposition Zrotation Xrotation Yrotation
                  JOINT lRing3
                  {
                    OFFSET 2.506 0 0
                    CHANNELS 6 Xposition Yposition Zposition Zrotation Xrotation Yrotation
                    End Site
                    {
                      OFFSET 2.2023 0 0
                    }
                  }
                }
              }
              JOINT lPinky1
              {
                OFFSET 7.6901 0.6618 -3.9096
                CHANNELS 6 Xposition Yposition Zposition Zrotation Xrotation Yrotation
                JOINT lPinky2
                {
                  OFFSET 3.2119 0 0
                  CHANNELS 6 Xposition Yposition Zposition Zrotation Xrotation Yrotation
                  JOINT lPinky3
                  {
                    OFFSET 1.924 0 0
                    CHANNELS 6 Xposition Yposition Zposition Zrotation Xrotation Yrotation
                    End Site
                    {
                      OFFSET 1.7829 0 0
                    }
                  }
                }
              }
            }
          }
        }
      }
      JOINT rCollar
      {
        OFFSET -4.0677 26.6109 -1.1234
        CHANNELS 6 Xposition Yposition Zposition Zrotation Xrotation Yrotation
        JOINT rShldr
        {
          OFFSET -14.1772 0 0
          CHANNELS 6 Xposition Yposition Zposition Zrotation Xrotation Yrotation
          JOINT rForeArm
          {
            OFFSET -26.1234 0 0
            CHANNELS 6 Xposition Yposition Zposition Zrotation Xrotation Yrotation
            JOINT rHand
            {
              OFFSET -27.7188 0 0
              CHANNELS 6 Xposition Yposition Zposition Zrotation Xrotation Yrotation
              JOINT rThumb1
              {
                OFFSET -2.2979 -0.4684 1.8313
                CHANNELS 6 Xposition Yposition Zposition Zrotation Xrotation Yrotation
                JOINT rThumb2
                {
                  OFFSET -5.2953 0 0
                  CHANNELS 6 Xposition Yposition Zposition Zrotation Xrotation Yrotation
                  JOINT rThumb3
                  {
                    OFFSET -3.0181 0 0
                    CHANNELS 6 Xposition Yposition Zposition Zrotation Xrotation Yrotation
                    End Site
                    {
                      OFFSET -2.6294 0 0
                    }
                  }
                }
              }
              JOINT rIndex1
              {
                OFFSET -9.3793 0.2991 2.5924
                CHANNELS 6 Xposition Yposition Zposition Zrotation Xrotation Yrotation
                JOINT rIndex2
                {
                  OFFSET -4.3461 0 0
                  CHANNELS 6 Xposition Yposition Zposition Zrotation Xrotation Yrotation
                  JOINT rIndex3
                  {
                    OFFSET -2.1666 0 0
                    CHANNELS 6 Xposition Yposition Zposition Zrotation Xrotation Yrotation
                    End Site
                    {
                      OFFSET -2.2048 0 0
                    }
                  }
                }
              }
              JOINT rMid1
              {
                OFFSET -9.4769 0.8376 0.2947
                CHANNELS 6 Xposition Yposition Zposition Zrotation Xrotation Yrotation
                JOINT rMid2
                {
                  OFFSET -4.772 0 0
                  CHANNELS 6 Xposition Yposition Zposition Zrotation Xrotation Yrotation
                  JOINT rMid3
                  {
                    OFFSET -2.8722 0 0
                    CHANNELS 6 Xposition Yposition Zposition Zrotation Xrotation Yrotation
                    End Site
                    {
                      OFFSET -2.0959 0 0
                    }
                  }
                }
              }
              JOINT rRing1
              {
                OFFSET -8.6586 1.0176 -1.7016
                CHANNELS 6 Xposition Yposition Zposition Zrotation Xrotation Yrotation
                JOINT rRing2
                {
                  OFFSET -4.5461 0 0
                  CHANNELS 6 Xposition Yposition Zposition Zrotation Xrotation Yrotation
                  JOINT rRing3
                  {
                    OFFSET -2.506 0 0
                    CHANNELS 6 Xposition Yposition Zposition Zrotation Xrotation Yrotation
                    End Site
                    {
                      OFFSET -2.2023 0 0
                    }
                  }
                }
              }
              JOINT rPinky1
              {
                OFFSET -7.6901 0.6618 -3.9096
                CHANNELS 6 Xposition Yposition Zposition Zrotation Xrotation Yrotation
                JOINT rPinky2
                {
                  OFFSET -3.2119 0 0
                  CHANNELS 6 Xposition Yposition Zposition Zrotation Xrotation Yrotation
                  JOINT rPinky3
                  {
                    OFFSET -1.924 0 0
                    CHANNELS 6 Xposition Yposition Zposition Zrotation Xrotation Yrotation
                    End Site
                    {
                      OFFSET -1.7829 0 0
                    }
                  }
                }
              }
            }
          }
        }
      }
    }
  }
  JOINT lThigh
  {
    OFFSET 8.7379 -0.0029 0.0005
    CHANNELS 6 Xposition Yposition Zposition Zrotation Xrotation Yrotation
    JOINT lShin
    {
      OFFSET 0 -46.6676 0
      CHANNELS 6 Xposition Yposition Zposition Zrotation Xrotation Yrotation
      JOINT lFoot
      {
        OFFSET 0 -40.1476 0
        CHANNELS 6 Xposition Yposition Zposition Zrotation Xrotation Yrotation
        JOINT lToes
        {
          OFFSET 0 -8.8846 14.2294
          CHANNELS 6 Xposition Yposition Zposition Zrotation Xrotation Yrotation
          End Site
          {
            OFFSET 0 0 6.296
          }
        }
      }
    }
  }
  JOINT rThigh
  {
    OFFSET -8.7379 0.0029 -0.0005
    CHANNELS 6 Xposition Yposition Zposition Zrotation Xrotation Yrotation
    JOINT rShin
    {
      OFFSET 0 -46.6676 0
      CHANNELS 6 Xposition Yposition Zposition Zrotation Xrotation Yrotation
      JOINT rFoot
      {
        OFFSET 0 -40.1476 0
        CHANNELS 6 Xposition Yposition Zposition Zrotation Xrotation Yrotation
        JOINT rToes
        {
          OFFSET 0 -8.8846 14.2294
          CHANNELS 6 Xposition Yposition Zposition Zrotation Xrotation Yrotation
          End Site
          {
            OFFSET 0 0 6.296
          }
        }
      }
    }
  }
}
MOTION
Frames:	4
Frame Time:	0.0333333
-0.187293 96.2814 0.227346 -3.73206 -3.51034 -5.44562 8.88178e-16 7.2397 0 2.20974 -0.6618 0.636098 0 16.546 0 3.71541 0.551242 1.07981 0 34.2149 8.88178e-16 0.58153 36.8078 -0.223677 0 6.2923 -1.42109e-14 -0.18839 -29.4128 1.27887 4.0639 26.6115 -1.1234 -8.06909 -1.8264 -11.9412 14.1772 0 0 -75.9842 26.3327 5.02643 26.1234 0 3.55271e-15 -0.0230948 -0.106172 -1.44837 27.7188 0 3.55271e-15 -13.1054 -36.3648 -5.12304 2.2979 -0.4685 1.8313 58.3139 65.0614 -81.2203 5.2953 -7.10543e-15 -8.88178e-15 -27.853 8.95244 21.8855 3.0181 0 3.55271e-15 16.7461 -4.91795 15.477 9.3793 0.2991 2.5924 -2.64384 -1.34178 -2.13234 4.3461 0 0 -17.1026 -0.250675 3.5052 2.1666 8.88178e-16 0 -10.0859 -0.171525 1.59775 9.4769 0.8376 0.2947 -10.2309 -4.75667 2.05943 4.772 1.77636e-15 8.88178e-16 -16.9221 -0.554475 4.33156 2.8722 5.32907e-15 0 -13.9602 -0.330361 4.98436 8.6586 1.0176 -1.7016 -15.85 1.60578 3.40974 4.5461 0 4.44089e-16 -20.8082 -0.515498 2.80652 2.506 -3.55271e-15 -4.44089e-16 -11.0262 -0.090882 2.43986 7.6901 0.6618 -3.9096 -20.5295 -10.0887 5.92041 3.2119 0 0 -16.4959 -0.821938 5.66568 1.924 3.55271e-15 -1.77636e-15 -11.2523 -0.324183 5.42123 -4.0677 26.6109 -1.1234 10.0244 -1.37697 9.47508 -14.1772 0 -1.77636e-15 68.5125 37.6856 -4.52337 -26.1234 0 0 0.127625 -0.475389 6.67222 -27.7188 0 0 12.519 -23.6769 1.1416 -2.2979 -0.4684 1.8313 -58.2888 62.9234 82.0554 -5.2953 0 0 31.9274 6.93153 -22.4367 -3.0181 0 -3.55271e-15 -17.333 -4.09186 -19.5382 -9.3793 0.2991 2.5924 1.90791 -1.31599 2.48462 -4.3461 0 0 17.1734 -0.199689 -3.15311 -2.1666 3.55271e-15 8.88178e-16 10.1178 -0.154277 -1.43342 -9.4769 0.8376 0.2947 9.61427 -4.67311 -1.54914 -4.772 0 0 17.0119 -0.50556 -3.98233 -2.8722 -3.55271e-15 -8.88178e-16 14.053 -0.301292 -4.61246 -8.6586 1.0176 -1.7016 15.2007 1.74282 -2.79998 -4.5461 1.33227e-15 8.88178e-16 20.8658 -0.43863 -2.38136 -2.506 7.10543e-15 0 11.0731 -0.077968 -2.07052 -7.6901 0.6618 -3.9096 20.0738 -9.90082 -5.19217 -3.2119 2.22045e-15 0 16.615 -0.777926 -5.32382 -1.924 0 0 11.3628 -0.309557 -5.09462 8.7379 -0.0029 0.0005 10.9522 -8.29959 24.4495 0 -46.6676 3.55271e-15 5.82485 17.9 0.970275 -1.77636e-15 -40.1476 1.77636e-15 -6.82193 -3.29427 8.00503 1.77636e-15 -8.8846 14.2294 0.0001 4.96962e-17 -3.18055e-15 -8.7379 0.0029 -0.0005 2.71424 0.18512 -18.4302 -8.88178e-16 -46.6676 0 -3.06018 12.46 -9.4437 1.77636e-15 -40.1476 -8.88178e-16 3.28373 -8.12917 -9.18986 0 -8.8846 14.2294 1.10348e-32 9.93923e-17 -6.36111e-15 
-0.185404 96.2826 0.226608 -3.73199 -3.49181 -5.44554 -8.88178e-16 7.2397 8.88178e-16 2.21146 -0.661778 0.636153 0 16.546 0 3.71546 0.551285 1.07981 -8.88178e-16 34.2149 -8.88178e-16 0.581376 36.7887 -0.223646 0 6.2923 -1.42109e-14 -0.206191 -29.3719 1.27118 4.0639 26.6115 -1.1234 -8.05578 -1.82628 -11.9426 14.1772 -2.84217e-14 3.55271e-15 -76.0054 26.3522 5.0673 26.1234 -7.10543e-15 0 -0.0242656 -0.111058 -1.51556 27.7188 0 -3.55271e-15 -13.0833 -36.3651 -5.06342 2.2979 -0.4685 1.8313 58.3139 65.0614 -81.2203 5.2953 7.10543e-15 8.88178e-15 -27.8563 8.94994 21.8868 3.0181 -1.77636e-15 0 16.7422 -4.91807 15.4785 9.3793 0.2991 2.5924 -2.64825 -1.34193 -2.13154 4.3461 -3.55271e-15 0 -17.1071 -0.250943 3.50609 2.1666 -1.9984e-15 0 -10.0903 -0.171684 1.59863 9.4769 0.8376 0.2947 -10.2353 -4.75693 2.0602 4.772 -1.77636e-15 -8.88178e-16 -16.9265 -0.554806 4.33264 2.8722 -1.77636e-15 -8.88178e-16 -13.9646 -0.330633 4.98546 8.6586 1.0176 -1.7016 -15.8544 1.60544 3.41049 4.5461 -1.77636e-15 0 -20.8127 -0.515719 2.80709 2.506 -7.10543e-15 0 -11.0306 -0.0910011 2.44047 7.6901 0.6618 -3.9096 -20.5338 -10.0892 5.92114 3.2119 0 8.88178e-16 -16.5001 -0.822353 5.6671 1.924 3.55271e-15 -1.77636e-15 -11.2566 -0.324474 5.42268 -4.0677 26.6109 -1.1234 10.0036 -1.37476 9.45686 -14.1772 0 0 68.5034 37.701 -4.50175 -26.1234 1.42109e-14 0 0.127452 -0.474886 6.66542 -27.7188 7.10543e-15 0 12.5156 -23.6719 1.13324 -2.2979 -0.4684 1.8313 -58.2888 62.9234 82.0554 -5.2953 -7.10543e-15 -3.55271e-15 31.9307 6.92898 -22.4378 -3.0181 0 0 -17.3291 -4.09229 -19.5398 -9.3793 0.2991 2.5924 1.91235 -1.31612 2.48389 -4.3461 -3.55271e-15 0 17.1778 -0.199923 -3.1539 -2.1666 3.55271e-15 8.88178e-16 10.1223 -0.154426 -1.43421 -9.4769 0.8376 0.2947 9.61865 -4.67333 -1.54985 -4.772 0 0 17.0163 -0.505862 -3.98333 -2.8722 3.55271e-15 8.88178e-16 14.0574 -0.301546 -4.61346 -8.6586 1.0176 -1.7016 15.2052 1.74253 -2.80064 -4.5461 -4.88498e-15 0 20.8703 -0.43882 -2.38184 -2.506 -3.55271e-15 -1.77636e-15 11.0776 -0.0780656 -2.07103 -7.6901 0.6618 -3.9096 20.0781 -9.90123 -5.19281 -3.2119 -3.9968e-15 -1.77636e-15 16.6192 -0.778316 -5.32516 -1.924 -3.55271e-15 0 11.3671 -0.309835 -5.09599 8.7379 -0.0029 0.0005 10.9606 -8.32159 24.4509 0 -46.6676 0 5.82516 17.9079 0.970544 0 -40.1476 -1.77636e-15 -6.82111 -3.29164 8.00516 1.77636e-15 -8.8846 14.2294 0.0001 1.49089e-16 6.36111e-15 -8.7379 0.0029 -0.0005 2.71555 0.181729 -18.4304 8.88178e-16 -46.6676 -1.77636e-15 -3.05418 12.4241 -9.44244 0 -40.1476 -1.77636e-15 3.28233 -8.10734 -9.18989 -3.55271e-15 -8.8846 14.2294 1.98785e-16 9.93923e-17 -1.27222e-14 
-0.182468 96.2852 0.228591 -3.73847 -3.47724 -5.45536 0 7.2397 0 2.21483 -0.668602 0.631592 -4.44089e-16 16.546 1.77636e-15 3.71554 0.537492 1.07107 -8.88178e-16 34.2149 0 0.58931 36.7754 -0.22456 8.88178e-16 6.2923 -1.42109e-14 -0.222142 -29.3313 1.26072 4.0639 26.6115 -1.1234 -8.02069 -1.82703 -11.9607 14.1772 -2.84217e-14 0 -76.0507 26.3835 5.13251 26.1234 -7.10543e-15 3.55271e-15 -0.0254955 -0.116434 -1.58897 27.7188 0 0 -13.0566 -36.3655 -4.98382 2.2979 -0.4685 1.8313 58.3139 65.0614 -81.2203 5.2953 7.10543e-15 -3.55271e-15 -27.8684 8.94159 21.8965 3.0181 -1.77636e-15 0 16.7276 -4.91857 15.4837 9.3793 0.2991 2.5924 -2.66486 -1.34252 -2.12853 4.3461 0 0 -17.1236 -0.251957 3.50937 2.1666 -3.33067e-15 0 -10.1068 -0.172273 1.60194 9.4769 0.8376 0.2947 -10.2516 -4.75791 2.06311 4.772 -1.77636e-15 8.88178e-16 -16.9428 -0.556044 4.3367 2.8722 7.10543e-15 0 -13.9809 -0.33165 4.98955 8.6586 1.0176 -1.7016 -15.8711 1.60418 3.41328 4.5461 8.88178e-16 0 -20.8294 -0.516538 2.80925 2.506 7.10543e-15 0 -11.0473 -0.0914378 2.44272 7.6901 0.6618 -3.9096 -20.5499 -10.091 5.9239 3.2119 6.21725e-15 1.77636e-15 -16.516 -0.823931 5.67242 1.924 0 -1.77636e-15 -11.2725 -0.325555 5.42812 -4.0677 26.6109 -1.1234 9.9537 -1.37287 9.45144 -14.1772 2.84217e-14 1.77636e-15 68.5057 37.717 -4.48864 -26.1234 0 0 0.127436 -0.474742 6.66365 -27.7188 0 3.55271e-15 12.5193 -23.6519 1.11889 -2.2979 -0.4684 1.8313 -58.2888 62.9234 82.0554 -5.2953 1.42109e-14 3.55271e-15 31.9429 6.91937 -22.4421 -3.0181 8.88178e-16 -3.55271e-15 -17.3148 -4.09382 -19.5458 -9.3793 0.2991 2.5924 1.929 -1.3166 2.48123 -4.3461 3.55271e-15 -8.88178e-16 17.1944 -0.200833 -3.15686 -2.1666 -4.44089e-16 8.88178e-16 10.1389 -0.154959 -1.43717 -9.4769 0.8376 0.2947 9.63514 -4.67416 -1.55242 -4.772 -5.32907e-15 8.88178e-16 17.0326 -0.506993 -3.98705 -2.8722 8.88178e-15 0 14.0738 -0.302492 -4.61721 -8.6586 1.0176 -1.7016 15.222 1.74145 -2.80311 -4.5461 0 1.77636e-15 20.887 -0.439525 -2.38367 -2.506 1.42109e-14 0 11.0944 -0.0784415 -2.07295 -7.6901 0.6618 -3.9096 20.0943 -9.90292 -5.19527 -3.2119 0 -3.55271e-15 16.6352 -0.779812 -5.33015 -1.924 7.10543e-15 0 11.3831 -0.310861 -5.10109 8.7379 -0.0029 0.0005 10.9666 -8.33263 24.4445 0 -46.6676 -3.55271e-15 5.81991 17.9116 0.98456 3.55271e-15 -40.1476 0 -6.81983 -3.28702 8.00538 0 -8.8846 14.2294 0.0001 -1.98785e-16 -3.18055e-15 -8.7379 0.0029 -0.0005 2.72303 0.203167 -18.4305 1.77636e-15 -46.6676 0 -3.04091 12.349 -9.44006 -1.77636e-15 -40.1476 -2.22045e-16 3.27522 -8.0692 -9.19053 1.77636e-15 -8.8846 14.2294 -1.49089e-16 0 -9.54166e-15 
-0.177797 96.2881 0.232082 -3.74396 -3.46573 -5.47004 0 7.2397 0 2.21392 -0.683913 0.62374 4.44089e-16 16.546 -8.88178e-16 3.70895 0.506611 1.05639 0 34.2149 8.88178e-16 0.611857 36.7752 -0.234354 -8.88178e-16 6.2923 0 -0.250189 -29.2887 1.24478 4.0639 26.6115 -1.1234 -7.96045 -1.83202 -11.981 14.1772 -2.84217e-14 0 -76.129 26.4266 5.27069 26.1234 0 3.55271e-15 -0.0283602 -0.128676 -1.7569 27.7188 -7.10543e-15 0 -12.9916 -36.3662 -4.83094 2.2979 -0.4685 1.8313 58.3139 65.0614 -81.2203 5.2953 7.10543e-15 3.55271e-15 -27.8913 8.93091 21.9107 3.0181 1.77636e-15 0 16.702 -4.9158 15.4894 9.3793 0.2991 2.5924 -2.69217 -1.34349 -2.12357 4.3461 0 3.55271e-15 -17.1508 -0.253631 3.51479 2.1666 4.44089e-16 3.55271e-15 -10.1341 -0.173244 1.60739 9.4769 0.8376 0.2947 -10.2786 -4.75952 2.06791 4.772 -5.32907e-15 0 -16.9696 -0.558084 4.34339 2.8722 0 1.77636e-15 -14.0078 -0.333331 4.99629 8.6586 1.0176 -1.7016 -15.8986 1.60211 3.41788 4.5461 3.55271e-15 0 -20.8569 -0.517887 2.8128 2.506 3.55271e-15 1.33227e-15 -11.0749 -0.0921708 2.44646 7.6901 0.6618 -3.9096 -20.5764 -10.094 5.92842 3.2119 8.88178e-16 0 -16.5422 -0.826527 5.68118 1.924 7.10543e-15 0 -11.2987 -0.327346 5.43708 -4.0677 26.6109 -1.1234 9.87877 -1.37591 9.45942 -14.1772 0 0 68.5299 37.7337 -4.48465 -26.1234 -7.10543e-15 0 0.126839 -0.473075 6.64008 -27.7188 0 1.77636e-15 12.5329 -23.623 1.11241 -2.2979 -0.4684 1.8313 -58.2888 62.9234 82.0554 -5.2953 0 0 31.9658 6.90771 -22.4522 -3.0181 -8.88178e-16 3.55271e-15 -17.2895 -4.09255 -19.553 -9.3793 0.2991 2.5924 1.95641 -1.3174 2.47682 -4.3461 -7.10543e-15 8.88178e-16 17.2217 -0.202342 -3.16173 -2.1666 -1.77636e-15 -8.88178e-16 10.1663 -0.155831 -1.44206 -9.4769 0.8376 0.2947 9.66226 -4.67555 -1.55669 -4.772 0 0 17.0597 -0.508883 -3.99319 -2.8722 0 -8.88178e-16 14.1008 -0.304041 -4.62341 -8.6586 1.0176 -1.7016 15.2496 1.73967 -2.80722 -4.5461 0 0 20.9147 -0.440664 -2.38668 -2.506 0 -1.77636e-15 11.122 -0.079065 -2.0761 -7.6901 0.6618 -3.9096 20.1211 -9.90552 -5.19929 -3.2119 -3.9968e-15 0 16.6616 -0.782274 -5.33838 -1.924 3.55271e-15 3.55271e-15 11.4095 -0.31256 -5.10951 8.7379 -0.0029 0.0005 10.9688 -8.33484 24.4355 1.77636e-15 -46.6676 -7.10543e-15 5.81118 17.9094 1.0074 0 -40.1476 -1.77636e-15 -6.81908 -3.28459 8.00562 0 -8.8846 14.2294 0.0001 -4.96962e-17 -3.18055e-15 -8.7379 0.0029 -0.0005 2.72827 0.218468 -18.4306 -8.88178e-16 -46.6676 0 -3.02974 12.2943 -9.43839 -1.77636e-15 -40.1476 4.44089e-16 3.26595 -8.03739 -9.18603 0 -8.8846 14.2294 -4.96962e-17 -4.96962e-17 -0 
